HIERARCHY
ROOT Hips
{
	OFFSET 0 0 0
	CHANNELS 6 Xposition Yposition Zposition Xrotation Yrotation Zrotation
	JOINT LeftUpLeg
	{
		OFFSET 7.879461 0 0
		CHANNELS 3 Xrotation Yrotation Zrotation
		JOINT LeftLeg
		{
			OFFSET 0 -42.7566074 0
			CHANNELS 3 Xrotation Yrotation Zrotation
			JOINT LeftFoot
			{
				OFFSET 0 -39.4685266 0
				CHANNELS 3 Xrotation Yrotation Zrotation
				JOINT LeftToeBase
				{
					OFFSET 0 -3.9970964 14.9173438
					CHANNELS 3 Xrotation Yrotation Zrotation
					End Site
					{
						OFFSET 0 0 7.499985
					}
				}
			}
		}
	}
	JOINT RightUpLeg
	{
		OFFSET -7.879461 0 0
		CHANNELS 3 Xrotation Yrotation Zrotation
		JOINT RightLeg
		{
			OFFSET 0 -42.7566074 0
			CHANNELS 3 Xrotation Yrotation Zrotation
			JOINT RightFoot
			{
				OFFSET 0 -39.4685266 0
				CHANNELS 3 Xrotation Yrotation Zrotation
				JOINT RightToeBase
				{
					OFFSET 0 -3.9970964 14.9173438
					CHANNELS 3 Xrotation Yrotation Zrotation
					End Site
					{
						OFFSET 0 0 7.499985
					}
				}
			}
		}
	}
	JOINT Spine
	{
		OFFSET 0 0.0999998 0
		CHANNELS 3 Xrotation Yrotation Zrotation
		JOINT Spine1
		{
			OFFSET 0 21.1085684 0
			CHANNELS 3 Xrotation Yrotation Zrotation
			JOINT Neck
			{
				OFFSET 0 15.8867602 0
				CHANNELS 3 Xrotation Yrotation Zrotation
				JOINT Head
				{
					OFFSET 0 21.8647518 0
					CHANNELS 3 Xrotation Yrotation Zrotation
					End Site
					{
						OFFSET 0 11.499977 0
					}
				}
			}
			JOINT LeftShoulder
			{
				OFFSET 0 15.8867602 0
				CHANNELS 3 Xrotation Yrotation Zrotation
				JOINT LeftArm
				{
					OFFSET 18.9193678 -7.62e-05 0
					CHANNELS 3 Xrotation Yrotation Zrotation
					JOINT LeftForeArm
					{
						OFFSET 27.268043 -0.0001016 0
						CHANNELS 3 Xrotation Yrotation Zrotation
						JOINT LeftHand
						{
							OFFSET 25.802336 -0.0001016 0
							CHANNELS 3 Xrotation Yrotation Zrotation
							JOINT LeftHandThumb
							{
								OFFSET 0 0 0
								CHANNELS 3 Xrotation Yrotation Zrotation
								End Site
								{
									OFFSET 0 0 9.99998
								}
							}
							JOINT L_Wrist_End
							{
								OFFSET 9.99998 -2.54e-05 0
								CHANNELS 3 Xrotation Yrotation Zrotation
							}
						}
					}
				}
			}
			JOINT RightShoulder
			{
				OFFSET 0 15.8867602 0
				CHANNELS 3 Xrotation Yrotation Zrotation
				JOINT RightArm
				{
					OFFSET -18.9193678 -7.62e-05 0
					CHANNELS 3 Xrotation Yrotation Zrotation
					JOINT RightForeArm
					{
						OFFSET -27.268043 -0.0001016 0
						CHANNELS 3 Xrotation Yrotation Zrotation
						JOINT RightHand
						{
							OFFSET -25.802336 -0.0001016 0
							CHANNELS 3 Xrotation Yrotation Zrotation
							JOINT RightHandThumb
							{
								OFFSET 0 0 0
								CHANNELS 3 Xrotation Yrotation Zrotation
								End Site
								{
									OFFSET 0 0 9.99998
								}
							}
							JOINT R_Wrist_End
							{
								OFFSET -13.6999726 -5.08e-05 0
								CHANNELS 3 Xrotation Yrotation Zrotation
							}
						}
					}
				}
			}
		}
	}
}
MOTION
Frames: 13
Frame Time: 0.008333
24.831802 85.14207 -17.944084 2.4632 -83.4410 1.0952 2.8678 9.2001 10.8670 3.8252 -0.0000 -0.0000 -8.6069 16.2341 -33.7929 -2.3998 -0.0000 0.0000 8.3279 -4.9716 -0.9416 3.5183 0.0000 -0.0000 -20.8282 -4.8088 4.6161 4.5501 0.0000 0.0000 -7.4197 0.6574 0.7068 1.8059 -0.7180 1.0871 20.2151 11.0678 2.2386 -16.9222 -9.3022 -4.5466 18.3373 -2.7665 23.7124 -3.5015 2.3672 -98.3195 -0.0001 -33.2574 -0.0000 -0.9460 3.3505 -4.6493 -0.0000 -0.0000 -0.0000 -0.0000 -0.0000 -0.0000 18.0722 -4.6598 -15.8680 -0.1861 -6.5476 95.9424 -0.0001 21.5818 0.0000 -32.2598 9.4207 30.0418 -0.0000 -0.0000 -0.0000 -0.0000 -0.0000 -0.0000
24.727916 85.129624 -18.110454 1.5954 -83.5769 0.2916 2.1967 9.3744 11.0360 5.4749 -0.0000 0.0000 -9.2342 16.1603 -33.8050 -2.3946 -0.0000 0.0000 8.2442 -5.0457 -0.9312 3.9901 0.0000 -0.0000 -21.1434 -4.5532 4.6180 4.5421 -0.0000 0.0000 -7.3227 0.6614 0.7161 1.9604 -0.7167 1.0679 20.1859 11.3258 2.0246 -16.9520 -9.2780 -4.7570 18.2133 -3.0170 23.4765 -3.5579 2.3204 -98.8190 -0.0001 -30.8319 -0.0000 -2.8128 3.1988 -4.6505 -0.0000 0.0000 -0.0000 -0.0000 0.0000 -0.0000 17.7908 -4.4211 -15.7838 -0.1216 -6.2446 96.8013 -0.0001 20.5495 0.0000 -32.6111 9.4696 30.0514 -0.0000 0.0000 0.0000 -0.0000 0.0000 0.0000
24.682196 85.106764 -18.3388 3.9921 -83.5055 2.5424 0.9059 9.1238 11.4708 7.5213 0.0000 -0.0000 -9.9914 16.2678 -33.8779 -2.2687 -0.0000 -0.0000 7.7290 -5.1903 -0.6528 4.6011 -0.0000 0.0000 -21.5045 -4.4134 4.4487 4.5828 0.0000 0.0000 -7.3197 0.5610 0.6655 1.7279 -0.8149 1.1376 20.1890 11.1713 2.2013 -16.9161 -8.7562 -5.2033 18.3556 -3.0375 23.5255 -3.8790 2.3338 -99.5366 -0.0001 -28.3098 -0.0000 -4.2945 3.1569 -4.6205 -0.0000 0.0000 0.0000 -0.0000 0.0000 0.0000 18.2224 -4.4363 -15.4943 -0.9229 -5.2439 97.3749 -0.0001 19.4210 0.0000 -33.5280 9.5779 30.0690 -0.0000 0.0000 0.0000 -0.0000 0.0000 0.0000
24.589486 85.090762 -18.50263 3.3637 -83.6697 1.9925 0.0811 9.1190 11.6201 9.4906 0.0000 0.0000 -10.5626 16.4333 -33.8043 -2.2991 -0.0000 0.0000 7.8822 -4.2485 -0.6211 4.5476 -0.0000 0.0000 -21.6129 -5.0965 4.2440 4.3906 -0.0000 0.0000 -7.2210 0.6035 0.6743 1.8800 -0.7755 1.1053 20.1329 11.4169 1.9870 -16.9115 -8.7451 -5.4115 18.2759 -3.2625 23.2729 -3.9548 2.3258 -99.8891 -0.0001 -26.1513 -0.0000 -5.9566 3.4303 -5.0408 0.0000 0.0000 0.0000 0.0000 0.0000 0.0000 17.9152 -4.1754 -15.4651 -0.8358 -4.9019 98.1269 -0.0001 18.5823 0.0000 -33.7926 10.0094 29.5731 0.0000 -0.0000 -0.0000 0.0000 -0.0000 -0.0000
24.545798 85.061044 -18.735802 5.5289 -83.4253 3.9291 -1.4180 8.6572 12.1478 11.9223 -0.0000 0.0000 -11.3048 16.6227 -33.8286 -2.2063 0.0000 -0.0000 7.6188 -4.0776 -0.2091 4.7112 -0.0000 -0.0000 -21.7690 -5.3649 4.0393 4.4537 -0.0000 0.0000 -7.1880 0.4825 0.6735 1.6356 -0.8976 1.1946 20.1256 11.1721 2.2089 -16.8669 -8.2339 -5.8925 18.3666 -3.4249 23.3833 -4.1973 2.1275 -100.4650 -0.0001 -23.8530 -0.0000 -7.3999 3.3052 -4.8765 -0.0000 -0.0000 0.0000 -0.0000 -0.0000 0.0000 18.2699 -4.1987 -15.2544 -1.4669 -4.0845 98.6389 -0.0001 17.7487 0.0000 -33.8947 11.2878 28.2382 -0.0000 0.0000 0.0000 -0.0000 0.0000 0.0000
24.532082 85.030818 -18.951702 8.1651 -83.4056 6.2885 -2.9960 8.3104 12.6668 14.4491 0.0000 -0.0000 -11.9445 16.9898 -33.6379 -2.3458 0.0000 0.0000 7.1625 -4.0254 0.1954 5.0694 0.0000 -0.0000 -21.9313 -5.3088 3.6330 4.3528 0.0000 0.0000 -7.1350 0.4504 0.8264 1.3769 -0.9437 1.3268 20.0880 11.3244 2.0636 -16.7714 -8.1483 -6.1352 18.3772 -3.5049 23.2017 -4.3627 1.9106 -100.7859 -0.0001 -21.9032 -0.0000 -8.5848 3.6299 -5.4136 0.0000 -0.0000 0.0000 0.0000 -0.0000 0.0000 18.3512 -4.1136 -15.2862 -1.7893 -3.3789 99.2245 -0.0001 17.1174 0.0000 -33.1586 13.9022 25.4988 -0.0000 0.0000 0.0000 -0.0000 0.0000 0.0000
24.427942 85.002624 -19.101816 7.2586 -83.5023 5.4427 -3.9073 7.8641 12.7627 16.8216 0.0000 0.0000 -12.4389 17.6798 -33.3432 -2.1942 -0.0000 0.0000 7.2486 -3.8229 0.2420 5.2560 -0.0000 0.0000 -22.1909 -5.4339 3.6014 4.5524 -0.0000 0.0000 -7.0085 0.4998 0.8178 1.5699 -0.8964 1.2935 19.9515 11.4604 1.9373 -16.7236 -8.0989 -6.2919 18.2459 -3.7372 23.0745 -4.3296 1.7239 -101.0642 -0.0001 -20.2797 -0.0000 -9.4196 4.1042 -5.8153 0.0000 -0.0000 -0.0000 0.0000 -0.0000 -0.0000 18.1558 -3.8743 -15.3220 -1.8073 -3.1834 99.6934 -0.0001 16.5675 0.0000 -31.8159 16.2784 23.2484 -0.0000 -0.0000 -0.0000 -0.0000 -0.0000 -0.0000
24.371046 84.974684 -19.27987 8.0700 -83.1601 6.1396 -5.3048 6.9488 12.9963 19.5161 -0.0000 -0.0000 -12.9362 18.4517 -32.9196 -2.1091 -0.0000 -0.0000 7.1696 -4.1203 0.5248 5.3146 -0.0000 0.0000 -22.2680 -5.4261 3.5616 4.3152 -0.0000 -0.0000 -6.8665 0.3924 0.8243 1.3785 -1.0093 1.3150 19.9102 11.2905 2.0591 -16.6887 -7.7890 -6.6700 18.2987 -3.9381 23.1276 -4.5260 1.3303 -101.4260 -0.0001 -18.5045 -0.0000 -9.9333 4.0652 -5.6831 -0.0000 -0.0000 0.0000 -0.0000 -0.0000 0.0000 18.3156 -3.8747 -15.2251 -2.0746 -2.8208 99.9820 -0.0001 16.2522 0.0000 -31.3171 18.1119 21.1137 -0.0000 0.0000 0.0000 -0.0000 0.0000 0.0000
24.336756 84.945474 -19.451574 9.5849 -82.9994 7.4869 -6.8261 6.2000 13.2368 22.3022 -0.0000 -0.0000 -13.2887 19.2620 -32.5160 -2.1736 0.0000 0.0000 6.9312 -4.1788 0.8236 5.4947 0.0000 0.0000 -22.4185 -5.4695 3.4343 4.3052 -0.0000 0.0000 -6.7372 0.3533 0.9371 1.1708 -1.0620 1.3526 19.8175 11.3624 1.9653 -16.5932 -7.7307 -6.8370 18.3162 -4.0141 23.0547 -4.7237 0.7786 -101.6500 -0.0001 -17.0335 -0.0000 -10.1266 4.3116 -5.8161 0.0000 -0.0000 -0.0000 0.0000 -0.0000 -0.0000 18.4265 -3.8129 -15.2713 -2.3724 -2.4655 100.2687 -0.0001 15.8855 0.0000 -31.1473 19.7803 19.4135 -0.0000 0.0000 -0.0000 -0.0000 0.0000 -0.0000
24.236172 84.931504 -19.584924 8.8614 -83.0630 6.8087 -7.9076 5.6920 13.2407 24.9301 0.0000 0.0000 -13.3616 20.1146 -32.2467 -2.2562 0.0000 -0.0000 7.0289 -3.9192 0.8976 5.6248 -0.0000 0.0000 -22.5951 -5.6715 3.0318 4.3987 0.0000 0.0000 -6.6082 0.4135 0.9568 1.3593 -1.0063 1.3243 19.6398 11.5354 1.7814 -16.4190 -7.8132 -6.8789 18.2657 -4.2027 22.9530 -4.7107 0.4244 -101.8186 -0.0001 -16.0163 -0.0000 -9.9078 4.7727 -5.8897 -0.0000 -0.0000 0.0000 -0.0000 -0.0000 0.0000 18.2759 -3.5726 -15.3273 -2.3967 -2.2303 100.4414 -0.0001 15.7256 0.0000 -30.9033 20.7810 18.4792 -0.0000 0.0000 0.0000 -0.0000 0.0000 0.0000
24.173942 84.918296 -19.723862 9.9779 -82.7091 7.8194 -9.4288 4.6182 13.2812 27.7983 -0.0000 0.0000 -13.3252 21.1621 -32.0467 -2.5646 0.0000 -0.0000 6.9756 -4.2203 1.1544 5.5230 -0.0000 0.0000 -22.6013 -5.6666 2.7103 4.2752 0.0000 0.0000 -6.5206 0.3530 1.0341 1.2061 -1.0774 1.3109 19.6943 11.4936 1.7777 -16.6819 -7.7226 -7.1484 18.4106 -4.2872 22.9464 -5.0069 -0.3616 -101.9749 -0.0001 -15.0043 -0.0000 -9.9610 5.0166 -5.8341 -0.0000 -0.0000 -0.0000 -0.0000 -0.0000 -0.0000 18.3986 -3.5990 -15.2687 -2.6008 -1.9222 100.4745 -0.0001 15.7807 0.0000 -30.6984 20.8360 18.0522 -0.0000 0.0000 -0.0000 -0.0000 0.0000 -0.0000
24.073358 84.910422 -19.825462 9.2850 -82.8203 7.1716 -10.5260 4.1374 13.1771 30.4342 0.0000 0.0000 -13.1713 22.2376 -31.5352 -2.5722 0.0000 -0.0000 7.0945 -3.9903 1.1901 5.6129 -0.0000 0.0000 -22.7842 -5.8022 2.6084 4.5457 0.0000 0.0000 -6.3767 0.4539 1.0839 1.4326 -0.9833 1.2818 19.4564 11.6600 1.5948 -16.5242 -7.8197 -7.1652 18.2549 -4.4592 22.8516 -4.9023 -0.8402 -102.1100 -0.0001 -14.3122 -0.0000 -9.4120 5.1702 -5.6389 -0.0000 -0.0000 -0.0000 -0.0000 -0.0000 -0.0000 18.3034 -3.3316 -15.3943 -2.6664 -1.6351 100.5040 -0.0001 15.8523 0.0000 -30.7051 20.8510 18.1348 -0.0000 0.0000 -0.0000 -0.0000 0.0000 -0.0000
24.004778 84.897976 -19.933666 10.6822 -82.4904 8.4872 -12.1218 3.3033 13.0730 33.2191 0.0000 0.0000 -12.9665 23.3787 -31.0914 -2.6168 0.0000 0.0000 6.9916 -4.3970 1.3806 5.5360 -0.0000 0.0000 -22.7436 -5.6654 2.5507 4.2560 0.0000 0.0000 -6.3325 0.4368 1.2090 1.2862 -1.0149 1.2065 19.5276 11.5948 1.5877 -16.8286 -7.7526 -7.4344 18.4431 -4.4799 22.8828 -5.2259 -1.7726 -102.2219 -0.0001 -13.6682 -0.0000 -9.0843 5.2585 -5.4259 -0.0000 0.0000 -0.0000 -0.0000 0.0000 -0.0000 18.5870 -3.3883 -15.3904 -3.0745 -1.1687 100.4261 -0.0001 15.9572 0.0000 -31.2025 20.4493 18.6581 0.0000 0.0000 0.0000 0.0000 0.0000 0.0000
